<svg version="1.1" id="Layer_1" xmlns="http://www.w3.org/2000/svg" xmlns:xlink="http://www.w3.org/1999/xlink" x="0px" y="0px"
	 width="100%" viewBox="0 0 924 1126" enable-background="new 0 0 924 1126" xml:space="preserve">
<path fill="#000000" opacity="1.000000" stroke="none" 
	d="
M925.000000,299.000000 
	C925.000000,308.687561 925.000000,318.375122 924.622986,328.657410 
	C924.497314,331.168121 924.748657,333.084045 925.000000,335.000000 
	C925.000000,336.066681 925.000000,337.133331 924.614380,338.736176 
	C923.153198,346.821198 922.480774,354.454590 920.918823,361.901428 
	C917.584167,377.799683 914.443359,393.786407 910.028137,409.398987 
	C903.453735,432.646698 893.290649,454.458832 880.995361,475.276031 
	C868.461060,496.497955 853.551758,515.919617 836.621399,533.770996 
	C830.296570,540.439941 823.340149,546.509888 816.405212,553.106506 
	C819.317566,555.575012 822.050415,557.444580 824.233337,559.819702 
	C833.245972,569.625183 842.393799,579.331238 850.934753,589.540039 
	C867.562500,609.414734 880.924072,631.397400 892.025940,654.809387 
	C900.500305,672.680359 907.540161,691.070190 912.558289,710.181213 
	C917.661560,729.615967 921.870361,749.241272 923.075562,769.394287 
	C923.169312,770.962280 924.333435,772.466248 925.000000,774.000000 
	C925.000000,774.750000 925.000000,775.500000 924.601135,776.778687 
	C924.468201,780.538269 924.734131,783.769104 925.000000,787.000000 
	C925.000000,796.687561 925.000000,806.375122 924.622925,816.657410 
	C924.497253,819.168091 924.748596,821.084045 925.000000,823.000000 
	C925.000000,824.066711 925.000000,825.133362 924.611206,826.740356 
	C923.148987,835.163147 921.967590,843.032837 921.023438,850.930847 
	C918.719238,870.205078 913.986206,888.921082 908.204346,907.396484 
	C901.225891,929.696045 891.378235,950.727112 880.009216,971.095642 
	C866.544678,995.218445 849.972107,1017.091431 830.573120,1036.607422 
	C818.943970,1048.306519 806.382690,1059.326538 793.054810,1069.021973 
	C778.921570,1079.303101 764.001282,1088.934570 748.294128,1096.503540 
	C731.212463,1104.734741 713.083435,1111.077393 694.942993,1116.745605 
	C677.156677,1122.303101 658.672180,1125.295166 639.933044,1126.036865 
	C638.611389,1126.089111 637.310486,1126.666626 636.000000,1127.000000 
	C426.979095,1127.000000 217.958206,1127.000000 8.172191,1126.715332 
	C8.544804,1124.849365 9.554427,1123.154053 10.842117,1121.706055 
	C16.964247,1114.822144 23.220076,1108.056763 29.320604,1101.154053 
	C41.378502,1087.510498 53.347656,1073.788452 65.387756,1060.129150 
	C73.315376,1051.135376 81.326874,1042.215454 89.258133,1033.224854 
	C101.413719,1019.445740 113.517769,1005.621094 125.673592,991.842224 
	C131.217743,985.557800 136.888657,979.384827 142.404877,973.076294 
	C153.515152,960.370117 164.557709,947.604736 175.630493,934.865845 
	C182.296051,927.197327 188.938202,919.508179 195.644669,911.875610 
	C199.382828,907.621216 203.147034,904.766174 209.809479,904.782166 
	C333.288361,905.079163 456.768311,905.074707 580.247375,904.830078 
	C588.390381,904.813965 596.682678,902.963745 604.639099,900.926208 
	C626.147278,895.418518 644.681335,884.559021 658.922302,867.379333 
	C665.591064,859.334412 672.052307,850.797974 676.816467,841.560486 
	C686.599426,822.591614 690.787415,802.311340 689.214600,780.657349 
	C688.068604,764.878113 684.263977,750.041260 677.407043,736.062134 
	C669.220764,719.372803 657.673401,705.163574 642.567322,694.107727 
	C623.984680,680.507324 603.207214,672.266296 580.131653,672.136230 
	C512.311707,671.753967 444.488190,672.000000 376.666077,672.000000 
	C374.925598,672.000000 373.185089,672.000000 371.329834,672.000000 
	C371.737152,670.820923 371.815094,669.942139 372.273224,669.365173 
	C382.894867,655.987061 393.542877,642.629700 404.218262,629.294434 
	C411.445282,620.266785 418.778687,611.323853 425.962433,602.262085 
	C436.760651,588.640991 447.431793,574.919067 458.229675,561.297668 
	C465.413025,552.235901 472.779358,543.319214 479.963013,534.257751 
	C490.761536,520.636475 501.463440,506.938751 512.222168,493.285950 
	C520.471497,482.817535 528.979492,472.542572 536.929321,461.852051 
	C542.664429,454.139801 548.263855,447.373535 559.472412,449.859131 
	C563.443176,450.739655 567.775879,449.901245 571.938660,450.018188 
	C585.424683,450.396973 598.530396,448.332855 611.363342,444.237671 
	C633.600159,437.141541 651.406006,423.810913 665.809143,405.683136 
	C681.442139,386.007294 688.836670,363.212646 689.777954,338.450500 
	C690.127075,329.266266 688.999390,319.717987 686.723328,310.800781 
	C680.432373,286.154480 667.669556,265.400146 647.716125,249.071686 
	C626.242004,231.498764 601.493103,223.728287 574.231812,223.068237 
	C558.659363,222.691208 543.070435,223.000000 526.854675,223.000000 
	C533.047485,212.168564 538.975281,201.890106 544.816650,191.562790 
	C553.359070,176.460236 561.787170,161.292892 570.360718,146.208176 
	C579.254028,130.560944 588.290405,114.995087 597.212341,99.364021 
	C604.703186,86.240067 612.063416,73.041458 619.582458,59.933815 
	C629.662170,42.362156 639.976440,24.922903 649.847839,7.235896 
	C651.627319,4.047510 652.638977,2.181683 656.594788,3.885745 
	C658.752258,4.815128 661.408020,4.512355 663.783875,5.022465 
	C677.473511,7.961772 691.280151,10.477057 704.795288,14.080578 
	C727.402100,20.108196 748.518433,29.872200 768.855774,41.371693 
	C789.432251,53.006466 808.319336,67.042297 825.418396,83.227890 
	C836.512756,93.729568 846.588867,105.389732 856.430786,117.110558 
	C868.377502,131.338058 878.271729,147.036209 887.080383,163.417999 
	C897.456299,182.714783 906.217285,202.741699 911.778992,223.893585 
	C916.076965,240.239502 918.680115,257.032562 921.987671,273.636627 
	C923.070984,279.075287 924.000244,284.544678 925.000000,290.000000 
	C925.000000,290.750000 925.000000,291.500000 924.622986,292.751099 
	C924.497314,295.168091 924.748657,297.084045 925.000000,299.000000 
z"/>
<path fill="#FFFFFF" opacity="1.000000" stroke="none" 
	d="
M925.000000,289.531342 
	C924.000244,284.544678 923.070984,279.075287 921.987671,273.636627 
	C918.680115,257.032562 916.076965,240.239502 911.778992,223.893585 
	C906.217285,202.741699 897.456299,182.714783 887.080383,163.417999 
	C878.271729,147.036209 868.377502,131.338058 856.430786,117.110558 
	C846.588867,105.389732 836.512756,93.729568 825.418396,83.227890 
	C808.319336,67.042297 789.432251,53.006466 768.855774,41.371693 
	C748.518433,29.872200 727.402100,20.108196 704.795288,14.080578 
	C691.280151,10.477057 677.473511,7.961772 663.783875,5.022465 
	C661.408020,4.512355 658.752258,4.815128 656.594788,3.885745 
	C652.638977,2.181683 651.627319,4.047510 649.847839,7.235896 
	C639.976440,24.922903 629.662170,42.362156 619.582458,59.933815 
	C612.063416,73.041458 604.703186,86.240067 597.212341,99.364021 
	C588.290405,114.995087 579.254028,130.560944 570.360718,146.208176 
	C561.787170,161.292892 553.359070,176.460236 544.816650,191.562790 
	C538.975281,201.890106 533.047485,212.168564 526.854675,223.000000 
	C543.070435,223.000000 558.659363,222.691208 574.231812,223.068237 
	C601.493103,223.728287 626.242004,231.498764 647.716125,249.071686 
	C667.669556,265.400146 680.432373,286.154480 686.723328,310.800781 
	C688.999390,319.717987 690.127075,329.266266 689.777954,338.450500 
	C688.836670,363.212646 681.442139,386.007294 665.809143,405.683136 
	C651.406006,423.810913 633.600159,437.141541 611.363342,444.237671 
	C598.530396,448.332855 585.424683,450.396973 571.938660,450.018188 
	C567.775879,449.901245 563.443176,450.739655 559.472412,449.859131 
	C548.263855,447.373535 542.664429,454.139801 536.929321,461.852051 
	C528.979492,472.542572 520.471497,482.817535 512.222168,493.285950 
	C501.463440,506.938751 490.761536,520.636475 479.963013,534.257751 
	C472.779358,543.319214 465.413025,552.235901 458.229675,561.297668 
	C447.431793,574.919067 436.760651,588.640991 425.962433,602.262085 
	C418.778687,611.323853 411.445282,620.266785 404.218262,629.294434 
	C393.542877,642.629700 382.894867,655.987061 372.273224,669.365173 
	C371.815094,669.942139 371.737152,670.820923 371.329834,672.000000 
	C373.185089,672.000000 374.925598,672.000000 376.666077,672.000000 
	C444.488190,672.000000 512.311707,671.753967 580.131653,672.136230 
	C603.207214,672.266296 623.984680,680.507324 642.567322,694.107727 
	C657.673401,705.163574 669.220764,719.372803 677.407043,736.062134 
	C684.263977,750.041260 688.068604,764.878113 689.214600,780.657349 
	C690.787415,802.311340 686.599426,822.591614 676.816467,841.560486 
	C672.052307,850.797974 665.591064,859.334412 658.922302,867.379333 
	C644.681335,884.559021 626.147278,895.418518 604.639099,900.926208 
	C596.682678,902.963745 588.390381,904.813965 580.247375,904.830078 
	C456.768311,905.074707 333.288361,905.079163 209.809479,904.782166 
	C203.147034,904.766174 199.382828,907.621216 195.644669,911.875610 
	C188.938202,919.508179 182.296051,927.197327 175.630493,934.865845 
	C164.557709,947.604736 153.515152,960.370117 142.404877,973.076294 
	C136.888657,979.384827 131.217743,985.557800 125.673592,991.842224 
	C113.517769,1005.621094 101.413719,1019.445740 89.258133,1033.224854 
	C81.326874,1042.215454 73.315376,1051.135376 65.387756,1060.129150 
	C53.347656,1073.788452 41.378502,1087.510498 29.320604,1101.154053 
	C23.220076,1108.056763 16.964247,1114.822144 10.842117,1121.706055 
	C9.554427,1123.154053 8.544804,1124.849365 7.703533,1126.715332 
	C5.674034,1127.000000 3.348068,1127.000000 1.000000,1127.000000 
	C1.000000,1083.312500 1.000000,1039.624878 1.386889,995.465698 
	C3.455779,991.838562 5.372780,988.784180 6.782126,985.511169 
	C16.918686,961.970642 26.888712,938.358215 37.039001,914.823608 
	C44.846718,896.720398 52.907169,878.726379 60.733475,860.631104 
	C69.890976,839.458008 78.864349,818.205383 88.016113,797.029785 
	C94.884560,781.137390 101.963699,765.336182 108.849197,749.451050 
	C116.941536,730.781860 124.910126,712.059021 132.962509,693.372498 
	C138.606903,680.273987 144.348206,667.217163 149.962936,654.105957 
	C157.781662,635.848145 165.434998,617.518982 173.322861,599.291260 
	C180.389969,582.960205 187.763687,566.761902 194.848358,550.438293 
	C203.969879,529.421692 212.949905,508.343628 221.964600,487.280792 
	C224.469543,481.428009 226.881531,475.535431 229.610672,469.004211 
	C177.294647,469.004211 125.760559,469.004211 73.823074,469.004211 
	C80.240555,454.941711 86.395676,441.394379 92.600685,427.869995 
	C104.439217,402.066772 116.286804,376.267609 128.168213,350.484131 
	C135.958115,333.579468 143.844498,316.719299 151.633224,299.814117 
	C163.513107,274.029175 175.324966,248.212891 187.206146,222.428543 
	C194.995468,205.524323 202.870911,188.659836 210.681503,171.765396 
	C223.473419,144.096252 236.347870,116.464577 248.988571,88.726425 
	C258.095154,68.743408 266.967499,48.652016 275.765320,28.530693 
	C279.734863,19.452024 283.268555,10.182778 287.000000,1.000001 
	C307.020905,1.000000 327.041779,1.000000 347.528870,1.386599 
	C347.340973,3.393408 346.752167,5.043672 346.022858,6.629293 
	C336.033386,28.347364 326.023315,50.055946 316.020844,71.768044 
	C306.353973,92.751648 296.691376,113.737213 287.024536,134.720825 
	C277.021881,156.433487 267.015137,178.144287 257.012482,199.856949 
	C247.345657,220.840546 237.695602,241.831879 228.012711,262.808075 
	C218.059479,284.369873 208.089417,305.923981 198.101105,327.469543 
	C187.097275,351.205627 176.034973,374.914673 165.063950,398.665863 
	C162.194351,404.878265 159.568985,411.203430 156.552994,418.114929 
	C208.763092,418.114929 260.291870,418.114929 312.338043,418.114929 
	C236.471649,593.695984 160.856522,768.695496 85.241394,943.695068 
	C85.661545,943.955688 86.081688,944.216309 86.501839,944.476929 
	C257.660522,723.486084 428.819244,502.495300 600.571594,280.738037 
	C545.655457,280.738037 491.924957,280.738037 437.893951,280.738037 
	C439.092560,278.422791 440.074005,276.451416 441.121460,274.515808 
	C449.765625,258.541748 458.353638,242.536819 467.090973,226.613846 
	C479.851746,203.358597 492.776886,180.193451 505.524567,156.931076 
	C512.473694,144.250168 519.108337,131.397064 526.048645,118.711258 
	C539.166809,94.733307 552.390564,70.813065 565.596924,46.883446 
	C570.646362,37.733936 575.876648,28.682619 580.818604,19.475990 
	C584.069519,13.419580 586.952332,7.165535 590.000000,0.999993 
	C701.588318,1.000000 813.176697,1.000000 925.000000,1.000000 
	C925.000000,97.020767 925.000000,193.041718 925.000000,289.531342 
z"/>
<path fill="#000000" opacity="1.000000" stroke="none" 
	d="
M589.531372,0.999993 
	C586.952332,7.165535 584.069519,13.419580 580.818604,19.475990 
	C575.876648,28.682619 570.646362,37.733936 565.596924,46.883446 
	C552.390564,70.813065 539.166809,94.733307 526.048645,118.711258 
	C519.108337,131.397064 512.473694,144.250168 505.524567,156.931076 
	C492.776886,180.193451 479.851746,203.358597 467.090973,226.613846 
	C458.353638,242.536819 449.765625,258.541748 441.121460,274.515808 
	C440.074005,276.451416 439.092560,278.422791 437.893951,280.738037 
	C491.924957,280.738037 545.655457,280.738037 600.571594,280.738037 
	C428.819244,502.495300 257.660522,723.486084 86.501839,944.476929 
	C86.081688,944.216309 85.661545,943.955688 85.241394,943.695068 
	C160.856522,768.695496 236.471649,593.695984 312.338043,418.114929 
	C260.291870,418.114929 208.763092,418.114929 156.552994,418.114929 
	C159.568985,411.203430 162.194351,404.878265 165.063950,398.665863 
	C176.034973,374.914673 187.097275,351.205627 198.101105,327.469543 
	C208.089417,305.923981 218.059479,284.369873 228.012711,262.808075 
	C237.695602,241.831879 247.345657,220.840546 257.012482,199.856949 
	C267.015137,178.144287 277.021881,156.433487 287.024536,134.720825 
	C296.691376,113.737213 306.353973,92.751648 316.020844,71.768044 
	C326.023315,50.055946 336.033386,28.347364 346.022858,6.629293 
	C346.752167,5.043672 347.340973,3.393408 347.997559,1.386599 
	C428.354218,1.000000 508.708466,1.000000 589.531372,0.999993 
z"/>
<path fill="#000000" opacity="1.000000" stroke="none" 
	d="
M286.531342,1.000001 
	C283.268555,10.182778 279.734863,19.452024 275.765320,28.530693 
	C266.967499,48.652016 258.095154,68.743408 248.988571,88.726425 
	C236.347870,116.464577 223.473419,144.096252 210.681503,171.765396 
	C202.870911,188.659836 194.995468,205.524323 187.206146,222.428543 
	C175.324966,248.212891 163.513107,274.029175 151.633224,299.814117 
	C143.844498,316.719299 135.958115,333.579468 128.168213,350.484131 
	C116.286804,376.267609 104.439217,402.066772 92.600685,427.869995 
	C86.395676,441.394379 80.240555,454.941711 73.823074,469.004211 
	C125.760559,469.004211 177.294647,469.004211 229.610672,469.004211 
	C226.881531,475.535431 224.469543,481.428009 221.964600,487.280792 
	C212.949905,508.343628 203.969879,529.421692 194.848358,550.438293 
	C187.763687,566.761902 180.389969,582.960205 173.322861,599.291260 
	C165.434998,617.518982 157.781662,635.848145 149.962936,654.105957 
	C144.348206,667.217163 138.606903,680.273987 132.962509,693.372498 
	C124.910126,712.059021 116.941536,730.781860 108.849197,749.451050 
	C101.963699,765.336182 94.884560,781.137390 88.016113,797.029785 
	C78.864349,818.205383 69.890976,839.458008 60.733475,860.631104 
	C52.907169,878.726379 44.846718,896.720398 37.039001,914.823608 
	C26.888712,938.358215 16.918686,961.970642 6.782126,985.511169 
	C5.372780,988.784180 3.455779,991.838562 1.386889,994.997070 
	C1.000000,663.779846 1.000000,332.559662 1.000000,1.000000 
	C96.020622,1.000000 191.041656,1.000000 286.531342,1.000001 
z"/>
<path fill="#FFFFFF" opacity="1.000000" stroke="none" 
	d="
M636.468628,1127.000000 
	C637.310486,1126.666626 638.611389,1126.089111 639.933044,1126.036865 
	C658.672180,1125.295166 677.156677,1122.303101 694.942993,1116.745605 
	C713.083435,1111.077393 731.212463,1104.734741 748.294128,1096.503540 
	C764.001282,1088.934570 778.921570,1079.303101 793.054810,1069.021973 
	C806.382690,1059.326538 818.943970,1048.306519 830.573120,1036.607422 
	C849.972107,1017.091431 866.544678,995.218445 880.009216,971.095642 
	C891.378235,950.727112 901.225891,929.696045 908.204346,907.396484 
	C913.986206,888.921082 918.719238,870.205078 921.023438,850.930847 
	C921.967590,843.032837 923.148987,835.163147 924.611206,827.140259 
	C925.000000,926.925720 925.000000,1026.851440 925.000000,1127.000000 
	C828.979248,1127.000000 732.958252,1127.000000 636.468628,1127.000000 
z"/>
<path fill="#FFFFFF" opacity="1.000000" stroke="none" 
	d="
M925.000000,773.531372 
	C924.333435,772.466248 923.169312,770.962280 923.075562,769.394287 
	C921.870361,749.241272 917.661560,729.615967 912.558289,710.181213 
	C907.540161,691.070190 900.500305,672.680359 892.025940,654.809387 
	C880.924072,631.397400 867.562500,609.414734 850.934753,589.540039 
	C842.393799,579.331238 833.245972,569.625183 824.233337,559.819702 
	C822.050415,557.444580 819.317566,555.575012 816.405212,553.106506 
	C823.340149,546.509888 830.296570,540.439941 836.621399,533.770996 
	C853.551758,515.919617 868.461060,496.497955 880.995361,475.276031 
	C893.290649,454.458832 903.453735,432.646698 910.028137,409.398987 
	C914.443359,393.786407 917.584167,377.799683 920.918823,361.901428 
	C922.480774,354.454590 923.153198,346.821198 924.614380,339.136169 
	C925.000000,483.687561 925.000000,628.375122 925.000000,773.531372 
z"/>
<path fill="#FFFFFF" opacity="1.000000" stroke="none" 
	d="
M925.000000,786.545898 
	C924.734131,783.769104 924.468201,780.538269 924.601135,777.153687 
	C925.000000,780.030579 925.000000,783.061218 925.000000,786.545898 
z"/>
<path fill="#FFFFFF" opacity="1.000000" stroke="none" 
	d="
M925.000000,298.571533 
	C924.748657,297.084045 924.497314,295.168091 924.622986,293.126099 
	C925.000000,294.714355 925.000000,296.428711 925.000000,298.571533 
z"/>
<path fill="#FFFFFF" opacity="1.000000" stroke="none" 
	d="
M925.000000,334.571533 
	C924.748657,333.084045 924.497314,331.168121 924.622986,329.126099 
	C925.000000,330.714355 925.000000,332.428711 925.000000,334.571533 
z"/>
<path fill="#FFFFFF" opacity="1.000000" stroke="none" 
	d="
M925.000000,822.571533 
	C924.748596,821.084045 924.497253,819.168091 924.622925,817.126099 
	C925.000000,818.714355 925.000000,820.428711 925.000000,822.571533 
z"/>
</svg>