<?xml version="1.0" standalone="no"?>
<!DOCTYPE svg PUBLIC "-//W3C//DTD SVG 20010904//EN"
 "http://www.w3.org/TR/2001/REC-SVG-20010904/DTD/svg10.dtd">
<svg version="1.0" xmlns="http://www.w3.org/2000/svg"
 width="300.000000pt" height="301.000000pt" viewBox="0 0 300.000000 301.000000"
 preserveAspectRatio="xMidYMid meet">
<metadata>
Created by potrace 1.10, written by Peter Selinger 2001-2011
</metadata>
<g transform="translate(0.000000,301.000000) scale(0.050000,-0.050000)"
fill="#000000" stroke="none">
<path d="M2860 5400 l0 -140 140 0 140 0 0 140 0 140 -140 0 -140 0 0 -140z"/>
<path d="M2520 5429 c-215 -46 -441 -123 -606 -206 -179 -91 -453 -265 -454
-289 -1 -50 260 14 444 108 255 131 654 258 808 258 4 0 8 36 8 80 0 92 0 92
-200 49z"/>
<path d="M3300 5380 c0 -44 3 -80 6 -80 143 0 519 -122 774 -251 199 -101 460
-166 460 -115 -1 94 -698 421 -1056 496 -192 40 -184 42 -184 -50z"/>
<path d="M1100 4660 l0 -140 140 0 140 0 0 140 0 140 -140 0 -140 0 0 -140z"/>
<path d="M4560 4660 l0 -140 127 0 c154 0 144 -11 136 148 l-6 132 -129 0
-128 0 0 -140z"/>
<path d="M844 4215 c-134 -235 -244 -550 -293 -840 l-13 -75 81 0 c67 0 82 7
89 45 73 364 159 601 312 855 l96 160 -94 0 -95 0 -83 -145z"/>
<path d="M4900 4351 c0 -5 30 -58 67 -116 149 -232 268 -534 314 -790 l25
-145 77 0 c95 0 97 17 29 283 -53 212 -155 468 -256 647 -66 118 -69 120 -162
126 -52 3 -94 1 -94 -5z"/>
<path d="M3109 3675 c-30 -91 -152 -447 -272 -793 -119 -345 -217 -633 -217
-640 0 -27 242 -100 250 -76 286 823 535 1550 537 1570 2 21 -175 101 -230
103 -8 1 -38 -73 -68 -164z"/>
<path d="M1990 3269 c-373 -268 -353 -241 -235 -329 52 -38 195 -153 320 -255
266 -218 224 -206 312 -92 93 120 101 100 -107 268 -217 175 -217 144 0 289
214 144 212 126 41 334 -6 8 -156 -89 -331 -215z"/>
<path d="M3615 3391 l-74 -110 191 -133 c104 -73 187 -135 184 -138 -3 -2 -82
-65 -176 -140 -93 -74 -178 -142 -188 -151 -9 -9 17 -59 60 -113 42 -53 78
-99 81 -103 5 -8 635 499 643 519 3 8 -87 80 -200 160 -113 80 -257 184 -319
232 -138 104 -114 107 -202 -23z"/>
<path d="M438 3152 c-4 -5 -5 -68 -1 -140 l6 -132 129 0 128 0 0 140 0 140
-127 0 c-69 0 -130 -4 -135 -8z"/>
<path d="M5300 3020 l0 -140 140 0 140 0 0 140 0 140 -140 0 -140 0 0 -140z"/>
<path d="M540 2704 c1 -205 258 -926 370 -1041 13 -13 190 -26 190 -13 0 7
-45 86 -100 176 -114 187 -228 487 -277 733 l-34 169 -75 5 c-58 4 -74 -3 -74
-29z"/>
<path d="M5311 2713 c-4 -13 -17 -83 -29 -156 -43 -254 -183 -604 -325 -811
-74 -108 -74 -109 38 -99 93 8 96 10 169 135 135 232 259 599 289 851 l12 103
-74 0 c-41 0 -77 -10 -80 -23z"/>
<path d="M1100 1360 l0 -140 140 0 140 0 0 140 0 140 -140 0 -140 0 0 -140z"/>
<path d="M4560 1360 l0 -140 127 0 c154 0 144 -11 136 148 l-6 132 -129 0
-128 0 0 -140z"/>
<path d="M1450 1060 c84 -136 716 -428 1080 -499 66 -13 136 -28 156 -34 32
-9 36 1 30 75 l-6 86 -138 25 c-262 48 -627 193 -822 326 -65 44 -325 62 -300
21z"/>
<path d="M4370 1062 c-44 -7 -170 -58 -280 -115 -248 -127 -389 -178 -620
-225 l-180 -36 -6 -85 c-6 -73 -2 -83 30 -74 20 6 90 20 156 33 292 55 620
188 886 359 250 160 251 179 14 143z"/>
<path d="M2868 722 c-4 -5 -8 -66 -8 -135 l0 -127 140 0 140 0 0 135 0 135
-132 0 c-72 0 -135 -4 -140 -8z"/>
</g>
</svg>
